<svg xmlns="http://www.w3.org/2000/svg" xmlns:xlink="http://www.w3.org/1999/xlink" width="1024" height="1024" viewBox="0 0 1024 1024" fill="none">
<path d="M873.333 124.216C861.503 114.254 845.938 110.074 830.728 112.831L383.069 191.814C358.076 196.261 339.931 217.875 339.931 243.225L339.931 688.659C317.784 669.803 289.144 658.329 257.835 658.329C187.925 658.329 131 715.253 131 785.164C131 855.075 187.925 912 257.835 912C327.746 912 384.67 855.075 384.67 785.164L384.67 386.158L847.272 304.507L847.272 599.092C825.125 580.236 796.484 568.761 765.176 568.761C695.265 568.761 638.341 625.686 638.341 695.597C638.341 765.507 695.265 822.432 765.176 822.432C835.086 822.432 892.011 765.507 892.011 695.597L892.011 164.241C892.011 148.765 885.251 134.178 873.333 124.216Z" fill="#21D49B" >
</path>
</svg>
