<svg xmlns="http://www.w3.org/2000/svg" xmlns:xlink="http://www.w3.org/1999/xlink" width="1024" height="1024" viewBox="0 0 1024 1024" fill="none">
<path d="M873.333 124.216C861.503 114.254 845.938 110.074 830.729 112.831L383.07 191.814C358.076 196.261 339.931 217.875 339.931 243.225L339.931 688.659C317.784 669.803 289.144 658.329 257.835 658.329C187.925 658.329 131 715.254 131 785.164C131 855.076 187.925 912 257.835 912C327.746 912 384.671 855.076 384.671 785.164L384.671 386.158L847.272 304.507L847.272 599.092C825.125 580.236 796.485 568.762 765.176 568.762C695.266 568.762 638.341 625.686 638.341 695.597C638.341 765.508 695.266 822.432 765.176 822.432C835.087 822.432 892.012 765.508 892.012 695.597L892.012 164.241C892.012 148.765 885.252 134.178 873.333 124.216ZM257.835 867.171C212.562 867.171 175.739 830.348 175.739 785.075C175.739 739.802 212.562 702.98 257.835 702.98C303.108 702.98 339.931 739.802 339.931 785.075C339.931 830.348 303.108 867.171 257.835 867.171ZM384.671 340.707L384.671 243.225C384.671 239.577 387.25 236.464 390.808 235.841L838.467 156.859C841.491 156.414 843.537 157.659 844.515 158.549C845.493 159.349 847.183 161.217 847.183 164.241L847.183 259.145L384.671 340.707ZM765.176 777.694C719.903 777.694 683.08 740.87 683.08 695.597C683.08 650.324 719.903 613.501 765.176 613.501C810.449 613.501 847.272 650.324 847.272 695.597C847.272 740.87 810.449 777.694 765.176 777.694Z" fill="#B2B2B2" >
</path>
</svg>
