<svg xmlns="http://www.w3.org/2000/svg" xmlns:xlink="http://www.w3.org/1999/xlink" width="1024" height="1024" viewBox="0 0 1024 1024" fill="none">
<path d="M512 864C196.746 864 85 771.882 85 512C85 252.118 196.746 160 512 160C827.254 160 939 252.118 939 512C939 771.882 827.254 864 512 864ZM512 212.8C233.852 212.8 149.05 282.707 149.05 512C149.05 741.293 233.852 811.2 512 811.2C790.148 811.2 874.95 741.293 874.95 512C874.95 282.707 790.148 212.8 512 212.8ZM454.056 662C439.728 662 430.933 656.173 426.022 651.262C420.233 645.508 402.533 627.807 403.009 511.011C403.522 394.873 420.452 377.905 426.022 372.335C430.75 367.607 439.215 362 452.92 362C495.941 362 660 457.614 660 511.817C660 520.942 660 548.685 573.738 607.248C554.866 620.111 490.334 662 454.056 662ZM464.096 419.537C456.035 459.74 455.925 567.119 463.987 605.012C499.532 593.652 584.072 537.434 602.871 511.89C584.182 487.226 500.668 432.181 464.096 419.537Z" fill-rule="evenodd"  fill="#B2B2B2" >
</path>
</svg>
