<svg xmlns="http://www.w3.org/2000/svg" xmlns:xlink="http://www.w3.org/1999/xlink" width="1024" height="1024" viewBox="0 0 1024 1024" fill="none">
<path d="M85 512C85 771.882 196.746 864 512 864C827.254 864 939 771.882 939 512C939 252.118 827.254 160 512 160C196.746 160 85 252.118 85 512ZM454.056 662C439.728 662 430.933 656.173 426.022 651.262C420.233 645.508 402.533 627.807 403.009 511.011C403.522 394.873 420.452 377.905 426.022 372.335C430.75 367.607 439.215 362 452.92 362C495.941 362 660 457.614 660 511.817C660 520.942 660 548.685 573.738 607.248C554.866 620.111 490.334 662 454.056 662Z" fill-rule="evenodd"  fill="#21D49B" >
</path>
</svg>
